<svg width="93" height="52" viewBox="0 0 93 52" fill="none" xmlns="http://www.w3.org/2000/svg">
<rect x="0.811401" y="0.5" width="91" height="51" rx="11.5" fill="#F8F9FA"/>
<rect x="0.811401" y="0.5" width="91" height="51" rx="11.5" stroke="#E8E8E8"/>
<mask id="mask0_69_4198" style="mask-type:luminance" maskUnits="userSpaceOnUse" x="14" y="8" width="28" height="32">
<path d="M41.0066 8H14.6161V40H41.0066V8Z" fill="white"/>
</mask>
<g mask="url(#mask0_69_4198)">
<path d="M32.3914 13.127C31.2523 14.4702 29.4296 15.5297 27.607 15.3783C27.3791 13.5621 28.2715 11.6324 29.3157 10.4405C30.4549 9.05944 32.4484 8.07567 34.0623 8C34.2521 9.89187 33.5115 11.7459 32.3914 13.127ZM34.0433 15.7378C31.4042 15.5864 29.1448 17.2323 27.8918 17.2323C26.6197 17.2323 24.7021 15.8133 22.6137 15.8513C19.8987 15.8891 17.3736 17.4215 15.9876 19.8621C13.1397 24.743 15.2471 31.97 18.0001 35.9429C19.3481 37.9103 20.9619 40.067 23.0883 39.9914C25.1008 39.9157 25.8982 38.686 28.3285 38.686C30.7776 38.686 31.4801 39.9914 33.6065 39.9537C35.809 39.9157 37.1949 37.9861 38.543 36.0185C40.0808 33.786 40.7074 31.6105 40.7454 31.497C40.7074 31.4592 36.4925 29.8511 36.4545 25.0079C36.4165 20.9592 39.7771 19.0296 39.9288 18.916C38.0302 16.116 35.0684 15.8133 34.0433 15.7378Z" fill="black"/>
</g>
<path d="M50.7674 30.5V19.3H54.3034C56.6554 19.3 58.2234 20.628 58.2234 22.788V23.028C58.2234 25.22 56.6874 26.564 54.3354 26.564H52.4634V30.5H50.7674ZM52.4314 25.108H54.2074C55.6474 25.108 56.5114 24.356 56.5114 23.06V22.82C56.5114 21.54 55.6474 20.82 54.2234 20.82H52.4314V25.108ZM61.9854 30.644C60.3694 30.644 59.2494 29.668 59.2494 28.18V28.052C59.2494 26.26 60.7854 25.364 63.9694 25.364H64.6894V24.9C64.6894 24.004 64.0814 23.444 62.9774 23.444H62.8814C62.0494 23.444 61.1054 23.748 60.3534 24.308L59.6494 23.108C60.6574 22.436 61.7934 22.02 62.9934 22.02H63.1054C65.0574 22.02 66.2254 23.108 66.2254 24.868V28.964C66.2254 29.476 66.3694 30.052 66.5134 30.5H64.9614C64.8654 30.26 64.7854 29.86 64.7374 29.508C63.9694 30.244 63.0094 30.644 61.9854 30.644ZM62.2414 29.252C63.2174 29.252 64.0974 28.804 64.6894 28.1V26.564H64.1774C61.8094 26.564 60.8014 26.996 60.8014 27.988V28.068C60.8014 28.788 61.3774 29.252 62.2414 29.252ZM69.3323 33.684C68.9483 33.684 68.3883 33.62 67.9723 33.38V31.988C68.3403 32.164 68.7083 32.26 69.0603 32.26C69.7963 32.26 70.4363 31.748 70.8203 30.852L67.2363 22.18H68.9643L71.5883 28.852H71.7003L73.7643 22.18H75.3963L72.5003 30.9C71.9563 32.548 70.9643 33.684 69.3323 33.684Z" fill="black"/>
</svg>
