<svg width="63" height="52" viewBox="0 0 63 52" fill="none" xmlns="http://www.w3.org/2000/svg">
<rect x="0.811401" y="0.5" width="60.8791" height="51" rx="11.5" fill="#F8F9FA"/>
<rect x="0.811401" y="0.5" width="60.8791" height="51" rx="11.5" stroke="#E8E8E8"/>
<path d="M20.1127 38.3642V36.7157C20.1127 36.0838 19.7296 35.6716 19.0729 35.6716C18.7445 35.6716 18.3888 35.7815 18.1425 36.1387C17.951 35.8365 17.6773 35.6716 17.2669 35.6716C16.9932 35.6716 16.7196 35.7541 16.5007 36.0563V35.7266H15.926V38.3642H16.5007V36.908C16.5007 36.4409 16.7469 36.2211 17.1301 36.2211C17.5132 36.2211 17.7047 36.4684 17.7047 36.908V38.3642H18.2793V36.908C18.2793 36.4409 18.553 36.2211 18.9087 36.2211C19.2918 36.2211 19.4834 36.4684 19.4834 36.908V38.3642H20.1127ZM28.6229 35.7266H27.6925V34.9298H27.1179V35.7266H26.598V36.2486H27.1179V37.4575C27.1179 38.0619 27.3642 38.4191 28.0209 38.4191C28.2672 38.4191 28.5408 38.3367 28.7324 38.2268L28.5682 37.7322C28.404 37.8421 28.2125 37.8696 28.0756 37.8696C27.802 37.8696 27.6925 37.7048 27.6925 37.43V36.2486H28.6229V35.7266ZM33.4937 35.6716C33.1653 35.6716 32.9464 35.8365 32.8096 36.0563V35.7266H32.235V38.3642H32.8096V36.8805C32.8096 36.4409 33.0011 36.1937 33.3569 36.1937C33.4663 36.1937 33.6031 36.2211 33.7126 36.2486L33.8768 35.6991C33.7673 35.6716 33.6031 35.6716 33.4937 35.6716ZM26.1328 35.9464C25.8592 35.7541 25.4761 35.6716 25.0656 35.6716C24.4089 35.6716 23.971 36.0013 23.971 36.5234C23.971 36.963 24.2994 37.2102 24.8741 37.2927L25.1477 37.3201C25.4487 37.3751 25.6129 37.4575 25.6129 37.5949C25.6129 37.7872 25.394 37.9246 25.0109 37.9246C24.6278 37.9246 24.3268 37.7872 24.1352 37.6498L23.8616 38.0894C24.1626 38.3092 24.573 38.4191 24.9835 38.4191C25.7497 38.4191 26.1875 38.0619 26.1875 37.5674C26.1875 37.1003 25.8318 36.8531 25.2845 36.7706L25.0109 36.7432C24.7646 36.7157 24.573 36.6607 24.573 36.4959C24.573 36.3036 24.7646 36.1937 25.0656 36.1937C25.394 36.1937 25.7223 36.331 25.8865 36.4135L26.1328 35.9464ZM41.4019 35.6716C41.0735 35.6716 40.8546 35.8365 40.7178 36.0563V35.7266H40.1431V38.3642H40.7178V36.8805C40.7178 36.4409 40.9093 36.1937 41.2651 36.1937C41.3745 36.1937 41.5113 36.2211 41.6208 36.2486L41.785 35.6991C41.6755 35.6716 41.5113 35.6716 41.4019 35.6716ZM34.0683 37.0454C34.0683 37.8421 34.6156 38.4191 35.4639 38.4191C35.847 38.4191 36.1206 38.3367 36.3943 38.1169L36.1206 37.6498C35.9017 37.8147 35.6828 37.8971 35.4365 37.8971C34.9713 37.8971 34.643 37.5674 34.643 37.0454C34.643 36.5508 34.9713 36.2211 35.4365 36.1937C35.6828 36.1937 35.9017 36.2761 36.1206 36.4409L36.3943 35.9739C36.1206 35.7541 35.847 35.6716 35.4639 35.6716C34.6156 35.6716 34.0683 36.2486 34.0683 37.0454ZM39.3769 37.0454V35.7266H38.8023V36.0563C38.6107 35.809 38.3371 35.6716 37.9814 35.6716C37.2426 35.6716 36.6679 36.2486 36.6679 37.0454C36.6679 37.8421 37.2426 38.4191 37.9814 38.4191C38.3645 38.4191 38.6381 38.2817 38.8023 38.0345V38.3642H39.3769V37.0454ZM37.2699 37.0454C37.2699 36.5783 37.5709 36.1937 38.0635 36.1937C38.5287 36.1937 38.857 36.5508 38.857 37.0454C38.857 37.5124 38.5287 37.8971 38.0635 37.8971C37.5709 37.8696 37.2699 37.5124 37.2699 37.0454ZM30.4016 35.6716C29.6354 35.6716 29.0881 36.2211 29.0881 37.0454C29.0881 37.8696 29.6354 38.4191 30.4289 38.4191C30.812 38.4191 31.1951 38.3092 31.4961 38.0619L31.2225 37.6498C31.0036 37.8147 30.7299 37.9246 30.4563 37.9246C30.1006 37.9246 29.7448 37.7597 29.6627 37.2927H31.6056V37.0729C31.6329 36.2211 31.1404 35.6716 30.4016 35.6716ZM30.4016 36.1662C30.7573 36.1662 31.0036 36.386 31.0583 36.7981H29.6901C29.7448 36.4409 29.9911 36.1662 30.4016 36.1662ZM44.6582 37.0454V34.6826H44.0835V36.0563C43.892 35.809 43.6184 35.6716 43.2626 35.6716C42.5238 35.6716 41.9491 36.2486 41.9491 37.0454C41.9491 37.8421 42.5238 38.4191 43.2626 38.4191C43.6457 38.4191 43.9194 38.2817 44.0835 38.0345V38.3642H44.6582V37.0454ZM42.5512 37.0454C42.5512 36.5783 42.8522 36.1937 43.3447 36.1937C43.8099 36.1937 44.1383 36.5508 44.1383 37.0454C44.1383 37.5124 43.8099 37.8971 43.3447 37.8971C42.8522 37.8696 42.5512 37.5124 42.5512 37.0454ZM23.3417 37.0454V35.7266H22.767V36.0563C22.5755 35.809 22.3018 35.6716 21.9461 35.6716C21.2073 35.6716 20.6326 36.2486 20.6326 37.0454C20.6326 37.8421 21.2073 38.4191 21.9461 38.4191C22.3292 38.4191 22.6028 38.2817 22.767 38.0345V38.3642H23.3417V37.0454ZM21.2073 37.0454C21.2073 36.5783 21.5083 36.1937 22.0008 36.1937C22.466 36.1937 22.7944 36.5508 22.7944 37.0454C22.7944 37.5124 22.466 37.8971 22.0008 37.8971C21.5083 37.8696 21.2073 37.5124 21.2073 37.0454Z" fill="black"/>
<path d="M34.5608 15.6963H25.9412V31.247H34.5608V15.6963Z" fill="#FF5F00"/>
<path d="M26.4884 23.472C26.4884 20.3124 27.966 17.5099 30.2372 15.6966C28.568 14.3778 26.461 13.5811 24.1624 13.5811C18.717 13.5811 14.3114 18.0045 14.3114 23.472C14.3114 28.9394 18.717 33.3628 24.1624 33.3628C26.461 33.3628 28.568 32.5661 30.2372 31.2473C27.966 29.4614 26.4884 26.6315 26.4884 23.472Z" fill="#EB001B"/>
<path d="M46.1905 23.472C46.1905 28.9394 41.7848 33.3628 36.3394 33.3628C34.0408 33.3628 31.9338 32.5661 30.2646 31.2473C32.5631 29.434 34.0134 26.6315 34.0134 23.472C34.0134 20.3124 32.5358 17.5099 30.2646 15.6966C31.9338 14.3778 34.0408 13.5811 36.3394 13.5811C41.7848 13.5811 46.1905 18.0319 46.1905 23.472Z" fill="#F79E1B"/>
</svg>
