<svg width="98" height="52" viewBox="0 0 98 52" fill="none" xmlns="http://www.w3.org/2000/svg">
<rect x="0.811401" y="0.5" width="96" height="51" rx="11.5" fill="#F8F9FA"/>
<rect x="0.811401" y="0.5" width="96" height="51" rx="11.5" stroke="#E8E8E8"/>
<path d="M30.3115 10C21.4814 10 14.3114 17.1598 14.3114 26.0001C14.3114 34.8402 21.4712 42 30.3115 42C39.1516 42 46.3114 34.8402 46.3114 26.0001C46.3114 17.1598 39.1516 10 30.3115 10ZM30.3115 40.2381C22.4489 40.2381 16.0733 33.8626 16.0733 26.0001C16.0733 18.1375 22.4489 11.7619 30.3115 11.7619C38.174 11.7619 44.5495 18.1375 44.5495 26.0001C44.5495 33.8626 38.174 40.2381 30.3115 40.2381Z" fill="#8DC641"/>
<path d="M35.8322 22.3122L32.3128 27.6728H35.8322V22.3122ZM37.1594 20.1433V27.6831H38.7079V29.0464H37.1594V31.866H35.822V29.0464H30.8447V27.5798L35.8623 20.1536L37.1594 20.1433ZM29.3767 30.4924V31.8557H21.9158V31.8145C21.9862 30.5336 22.3079 29.5939 22.9314 28.8192C23.4341 28.1788 24.0475 27.7037 25.3044 26.8981C25.3044 26.8981 25.7468 26.6089 25.8775 26.5263C26.5512 26.0821 26.9836 25.731 27.3355 25.3281C27.7679 24.8117 27.9891 24.2539 27.9891 23.5931C27.9891 22.3122 27.1042 21.4343 25.8373 21.4343C24.3592 21.4343 23.605 22.5911 23.5648 24.316V24.3469H22.2375V24.316L22.2275 24.0062C22.2275 21.6926 23.6955 20.1433 25.9077 20.1433C28.0695 20.1433 29.4772 21.486 29.4772 23.562C29.4772 24.6258 29.1052 25.4831 28.3913 26.2371C27.8584 26.8155 27.3053 27.1976 26.0686 27.9723C26.0485 27.9826 26.0384 27.9929 26.0183 28.0032C25.9579 28.0343 25.6865 28.1994 25.6161 28.2512C25.0228 28.6125 24.6608 28.8708 24.3391 29.1806C23.9469 29.5628 23.6855 29.9863 23.5648 30.4821H29.3767V30.4924Z" fill="black"/>
<path d="M55.7674 30.5V19.3H59.3034C61.6554 19.3 63.2234 20.628 63.2234 22.788V23.028C63.2234 25.22 61.6874 26.564 59.3354 26.564H57.4634V30.5H55.7674ZM57.4314 25.108H59.2074C60.6474 25.108 61.5114 24.356 61.5114 23.06V22.82C61.5114 21.54 60.6474 20.82 59.2234 20.82H57.4314V25.108ZM66.9854 30.644C65.3694 30.644 64.2494 29.668 64.2494 28.18V28.052C64.2494 26.26 65.7854 25.364 68.9694 25.364H69.6894V24.9C69.6894 24.004 69.0814 23.444 67.9774 23.444H67.8814C67.0494 23.444 66.1054 23.748 65.3534 24.308L64.6494 23.108C65.6574 22.436 66.7934 22.02 67.9934 22.02H68.1054C70.0574 22.02 71.2254 23.108 71.2254 24.868V28.964C71.2254 29.476 71.3694 30.052 71.5134 30.5H69.9614C69.8654 30.26 69.7854 29.86 69.7374 29.508C68.9694 30.244 68.0094 30.644 66.9854 30.644ZM67.2414 29.252C68.2174 29.252 69.0974 28.804 69.6894 28.1V26.564H69.1774C66.8094 26.564 65.8014 26.996 65.8014 27.988V28.068C65.8014 28.788 66.3774 29.252 67.2414 29.252ZM74.3323 33.684C73.9483 33.684 73.3883 33.62 72.9723 33.38V31.988C73.3403 32.164 73.7083 32.26 74.0603 32.26C74.7963 32.26 75.4363 31.748 75.8203 30.852L72.2363 22.18H73.9643L76.5883 28.852H76.7003L78.7643 22.18H80.3963L77.5003 30.9C76.9563 32.548 75.9643 33.684 74.3323 33.684Z" fill="black"/>
</svg>
