<svg width="44" height="44" viewBox="0 0 44 44" fill="none" xmlns="http://www.w3.org/2000/svg">
<path d="M16.003 10.1571C15.8091 10.1571 15.5182 10.2538 15.5182 10.6405V35.7764C15.5182 36.0665 15.7121 36.2598 16.003 36.2598H29.0939C29.3848 36.2598 29.3848 35.8732 29.3848 35.7764V10.6405C29.3848 10.1571 29.0939 10.1571 29.0939 10.1571H24.7302V7.74017H20.2697V10.1571H16.003ZM29.0939 38H16.003C14.7424 38 13.7727 37.0332 13.7727 35.6797V10.5438C13.7727 9.28701 14.7424 8.32025 16.003 8.32025H18.5242V6H26.4757V8.41692H29.0939C30.3545 8.41692 31.2273 9.38368 31.2273 10.6405V35.7764C31.2273 37.0332 30.3545 38 29.0939 38ZM17.5545 34.713H27.0575V32.9728H17.5545V34.713ZM21.0454 28.2356L19.6879 27.1722L22.597 23.4017L19.8818 21.3716L23.8575 15.7643L25.3121 16.8278L22.3061 20.9849L25.1182 23.1119L21.0454 28.2356Z" fill="#8C8F9D"/>
</svg>
