<svg width="52" height="52" viewBox="0 0 52 52" fill="none" xmlns="http://www.w3.org/2000/svg">
<rect width="52" height="52" rx="12" fill="#F5F6F8"/>
<path d="M35.2867 22.4533C34.505 21.59 33.3267 21.0883 31.6934 20.9133V20.0266C31.6934 18.4283 31.0167 16.8883 29.8267 15.815C28.625 14.7183 27.0617 14.205 25.44 14.3566C22.6517 14.625 20.3067 17.32 20.3067 20.2366V20.9133C18.6734 21.0883 17.495 21.59 16.7134 22.4533C15.5817 23.7133 15.6167 25.3933 15.745 26.56L16.5617 33.0583C16.8067 35.3333 17.7284 37.6666 22.745 37.6666H29.255C34.2717 37.6666 35.1934 35.3333 35.4384 33.07L36.255 26.5483C36.3834 25.3933 36.4067 23.7133 35.2867 22.4533ZM25.6034 15.9783C26.77 15.8733 27.8784 16.235 28.7417 17.0166C29.5934 17.7866 30.0717 18.8833 30.0717 20.0266V20.8433H21.9284V20.2366C21.9284 18.16 23.6434 16.165 25.6034 15.9783ZM21.8234 27.3416H21.8117C21.17 27.3416 20.645 26.8166 20.645 26.175C20.645 25.5333 21.17 25.0083 21.8117 25.0083C22.465 25.0083 22.99 25.5333 22.99 26.175C22.99 26.8166 22.465 27.3416 21.8234 27.3416ZM29.99 27.3416H29.9784C29.3367 27.3416 28.8117 26.8166 28.8117 26.175C28.8117 25.5333 29.3367 25.0083 29.9784 25.0083C30.6317 25.0083 31.1567 25.5333 31.1567 26.175C31.1567 26.8166 30.6317 27.3416 29.99 27.3416Z" fill="#001E34"/>
</svg>
