<svg width="32" height="32" viewBox="0 0 32 32" fill="none" xmlns="http://www.w3.org/2000/svg">
<path d="M26.3045 16.4726L24.442 16.476L25.0079 5.6853C25.0839 4.24033 23.1667 3.7872 22.5045 5.07422C21.4837 7.05792 19.9207 11.2203 19.1732 13.302C18.8967 14.0728 18.208 13.9854 18.0242 13.2424C17.526 11.2296 16.27 7.12277 15.5522 5.08128C15.1648 3.98001 13.6447 3.98663 13.2388 5.08128C12.4794 7.13028 11.2602 11.1286 10.7844 13.1881C10.6161 13.917 9.885 13.9647 9.63541 13.2477C8.90343 11.1444 7.30119 7.031 6.32846 5.07422C5.68439 3.77838 3.74907 4.24033 3.82505 5.6853L4.58972 20.2679C4.64847 21.3903 5.57704 22.2705 6.70262 22.2705H7.42975H14.1634H14.6701H20.9252L20.2776 26.3222C20.0714 27.6109 21.7593 28.2825 22.497 27.2051L27.8484 19.3877C28.6956 18.1496 27.8064 16.4699 26.3045 16.4726Z" fill="#F2E500" stroke="#64328A" stroke-width="0.7" stroke-miterlimit="10"/>
</svg>
