<svg width="14" height="14" viewBox="0 0 14 14" fill="none" xmlns="http://www.w3.org/2000/svg">
<path d="M0.333252 2.83325C0.333252 2.05668 0.333252 1.6684 0.460119 1.36211C0.629276 0.953733 0.953733 0.629276 1.36211 0.460119C1.6684 0.333252 2.05668 0.333252 2.83325 0.333252C3.60982 0.333252 3.99811 0.333252 4.30439 0.460119C4.71277 0.629276 5.03723 0.953733 5.20638 1.36211C5.33325 1.6684 5.33325 2.05668 5.33325 2.83325C5.33325 3.60982 5.33325 3.99811 5.20638 4.30439C5.03723 4.71277 4.71277 5.03723 4.30439 5.20638C3.99811 5.33325 3.60982 5.33325 2.83325 5.33325C2.05668 5.33325 1.6684 5.33325 1.36211 5.20638C0.953733 5.03723 0.629276 4.71277 0.460119 4.30439C0.333252 3.99811 0.333252 3.60982 0.333252 2.83325Z" fill="#001E34"/>
<path d="M8.66658 2.83325C8.66658 2.05668 8.66658 1.6684 8.79345 1.36211C8.96261 0.953733 9.28707 0.629276 9.69545 0.460119C10.0017 0.333252 10.39 0.333252 11.1666 0.333252C11.9432 0.333252 12.3314 0.333252 12.6377 0.460119C13.0461 0.629276 13.3706 0.953733 13.5397 1.36211C13.6666 1.6684 13.6666 2.05668 13.6666 2.83325C13.6666 3.60982 13.6666 3.99811 13.5397 4.30439C13.3706 4.71277 13.0461 5.03723 12.6377 5.20638C12.3314 5.33325 11.9432 5.33325 11.1666 5.33325C10.39 5.33325 10.0017 5.33325 9.69545 5.20638C9.28707 5.03723 8.96261 4.71277 8.79345 4.30439C8.66658 3.99811 8.66658 3.60982 8.66658 2.83325Z" fill="#001E34"/>
<path d="M0.333252 11.1666C0.333252 10.39 0.333252 10.0017 0.460119 9.69545C0.629276 9.28707 0.953733 8.96261 1.36211 8.79345C1.6684 8.66658 2.05668 8.66658 2.83325 8.66658C3.60982 8.66658 3.99811 8.66658 4.30439 8.79345C4.71277 8.96261 5.03723 9.28707 5.20638 9.69545C5.33325 10.0017 5.33325 10.39 5.33325 11.1666C5.33325 11.9432 5.33325 12.3314 5.20638 12.6377C5.03723 13.0461 4.71277 13.3706 4.30439 13.5397C3.99811 13.6666 3.60982 13.6666 2.83325 13.6666C2.05668 13.6666 1.6684 13.6666 1.36211 13.5397C0.953733 13.3706 0.629276 13.0461 0.460119 12.6377C0.333252 12.3314 0.333252 11.9432 0.333252 11.1666Z" fill="#001E34"/>
<path d="M8.66658 11.1666C8.66658 10.39 8.66658 10.0017 8.79345 9.69545C8.96261 9.28707 9.28707 8.96261 9.69545 8.79345C10.0017 8.66658 10.39 8.66658 11.1666 8.66658C11.9432 8.66658 12.3314 8.66658 12.6377 8.79345C13.0461 8.96261 13.3706 9.28707 13.5397 9.69545C13.6666 10.0017 13.6666 10.39 13.6666 11.1666C13.6666 11.9432 13.6666 12.3314 13.5397 12.6377C13.3706 13.0461 13.0461 13.3706 12.6377 13.5397C12.3314 13.6666 11.9432 13.6666 11.1666 13.6666C10.39 13.6666 10.0017 13.6666 9.69545 13.5397C9.28707 13.3706 8.96261 13.0461 8.79345 12.6377C8.66658 12.3314 8.66658 11.9432 8.66658 11.1666Z" fill="#001E34"/>
</svg>
