<svg width="32" height="32" viewBox="0 0 32 32" fill="none" xmlns="http://www.w3.org/2000/svg">
<path d="M3.64435 28.4289L4.60788 24.0044C4.63742 23.8641 4.67434 23.709 4.71864 23.5392C4.76663 23.3657 4.81831 23.1959 4.87369 23.0298C4.92906 22.86 4.98075 22.7123 5.02874 22.5868C4.92168 22.6828 4.79616 22.788 4.65219 22.9024C4.5119 23.0132 4.39561 23.0981 4.30332 23.1571L3.17919 23.8493L2.34302 22.4539L5.77631 20.333H7.49849L5.79846 28.4289H3.64435Z" fill="black"/>
<path d="M8.10156 28.7779L9.06406 24.2239H11.5996L11.4314 25.0151H9.83655L9.03914 28.7779H8.10156ZM10.9555 28.7779L11.918 24.2239H13.1889C13.5585 24.2239 13.8544 24.28 14.0766 24.3921C14.3009 24.5022 14.4629 24.6569 14.5626 24.8562C14.6643 25.0556 14.7152 25.2871 14.7152 25.5509C14.7152 25.8208 14.6654 26.0565 14.5657 26.2579C14.466 26.4594 14.3258 26.6276 14.1452 26.7625C13.9666 26.8954 13.7568 26.9951 13.516 27.0616C13.2751 27.1259 13.0134 27.1581 12.731 27.1581H12.2451L11.9056 28.7779H10.9555ZM12.4164 26.367H12.8058C12.9947 26.367 13.1598 26.3358 13.301 26.2735C13.4443 26.2112 13.5554 26.1209 13.6343 26.0025C13.7153 25.8841 13.7558 25.7419 13.7558 25.5758C13.7558 25.3847 13.7049 25.2435 13.6032 25.1522C13.5035 25.0608 13.353 25.0151 13.1515 25.0151H12.703L12.4164 26.367ZM14.4947 28.7779L15.4572 24.2239H16.3325L15.8746 26.3794C15.8518 26.4874 15.8248 26.6068 15.7936 26.7376C15.7625 26.8685 15.7313 26.9982 15.7002 27.127C15.669 27.2557 15.64 27.372 15.613 27.4759H15.6441L18.0239 24.2239H19.1764L18.2139 28.7779H17.3542L17.8058 26.6348C17.8328 26.5102 17.8598 26.3867 17.8868 26.2642C17.9138 26.1396 17.9419 26.0119 17.9709 25.881C18.0021 25.7502 18.0343 25.6142 18.0675 25.473L18.0426 25.4668L15.6628 28.7779H14.4947ZM18.9559 28.7779L19.9184 24.2239H21.2454C21.5361 24.2239 21.7894 24.2582 22.0054 24.3267C22.2214 24.3932 22.3885 24.5011 22.5069 24.6507C22.6273 24.7981 22.6875 24.9933 22.6875 25.2363C22.6875 25.4418 22.6481 25.6246 22.5692 25.7845C22.4923 25.9423 22.3802 26.0742 22.2328 26.1801C22.0853 26.2839 21.9057 26.3586 21.6939 26.4043V26.4293C21.9016 26.4832 22.0666 26.584 22.1892 26.7314C22.3138 26.8768 22.3761 27.0636 22.3761 27.2921C22.3761 27.6368 22.2971 27.9192 22.1393 28.1393C21.9815 28.3574 21.7666 28.5183 21.4945 28.6221C21.2246 28.726 20.9204 28.7779 20.5819 28.7779H18.9559ZM20.0742 27.9805H20.6348C20.7906 27.9805 20.9266 27.9545 21.0429 27.9026C21.1592 27.8507 21.2495 27.7738 21.3139 27.6721C21.3803 27.5703 21.4136 27.4457 21.4136 27.2983C21.4136 27.1384 21.3658 27.0149 21.2703 26.9276C21.1768 26.8383 21.0346 26.7937 20.8435 26.7937H20.3296L20.0742 27.9805ZM20.4884 26.0274H20.9526C21.1042 26.0274 21.236 26.0077 21.3481 25.9683C21.4624 25.9267 21.5506 25.8634 21.6129 25.7782C21.6752 25.691 21.7064 25.5789 21.7064 25.4418C21.7064 25.3006 21.6628 25.1947 21.5755 25.1241C21.4883 25.0514 21.3554 25.0151 21.1768 25.0151H20.7034L20.4884 26.0274ZM22.5574 28.7779L23.5199 24.2239H24.4731L24.0962 26.0087H25.5633L25.9402 24.2239H26.8902L25.9277 28.7779H24.9746L25.392 26.8124H23.9248L23.5075 28.7779H22.5574ZM26.1153 28.7779L27.7163 26.7314C27.5253 26.6089 27.3758 26.4697 27.2678 26.314C27.1598 26.1583 27.1058 25.9527 27.1058 25.6973C27.1058 25.4792 27.1432 25.2809 27.218 25.1023C27.2948 24.9217 27.409 24.7659 27.5606 24.6351C27.7122 24.5043 27.9022 24.4035 28.1306 24.3329C28.3611 24.2603 28.629 24.2239 28.9343 24.2239H30.4481L29.4825 28.7779H28.5324L28.9031 27.0304H28.5387L27.246 28.7779H26.1153ZM28.7318 26.2455H29.0682L29.3299 25.0151H28.9093C28.7785 25.0151 28.6622 25.0307 28.5605 25.0618C28.4608 25.0909 28.3767 25.1355 28.3082 25.1958C28.2396 25.2539 28.1877 25.3266 28.1524 25.4138C28.1171 25.501 28.0995 25.6017 28.0995 25.7159C28.0995 25.9049 28.1638 26.0409 28.2926 26.124C28.4213 26.205 28.5677 26.2455 28.7318 26.2455Z" fill="black"/>
<path fill-rule="evenodd" clip-rule="evenodd" d="M21.5332 7.0941C21.5846 7.07792 21.6523 7.11027 21.72 7.19923C21.72 7.19923 21.72 7.19922 24.7794 10.1805C24.9581 10.3585 24.9581 10.628 24.7794 10.7601C24.7794 10.7601 24.7794 10.7601 21.72 13.7873C21.6523 13.8762 21.5846 13.8978 21.5332 13.8708C21.4817 13.8439 21.4492 13.7657 21.4492 13.6525V7.28818C21.4492 7.17766 21.4817 7.11027 21.5332 7.0941Z" fill="#ED1C24"/>
<path fill-rule="evenodd" clip-rule="evenodd" d="M16.2994 2.12646H16.516L16.7245 2.21272C16.7245 2.21272 16.7245 2.21272 19.8733 5.32887C20.0087 5.50677 19.9627 5.64156 19.738 5.64156C19.738 5.64156 19.738 5.64156 18.4329 5.64156C18.2082 5.64156 18.0295 5.81947 18.0295 6.04321C18.0295 6.04321 18.0295 6.04321 18.0295 8.35605C18.0295 8.57979 17.8481 8.7577 17.5774 8.7577C17.5774 8.7577 17.5774 8.7577 15.2841 8.7577C15.0594 8.7577 14.878 8.57979 14.878 8.35605C14.878 8.35605 14.878 8.35605 14.878 6.04321C14.878 5.81947 14.6993 5.64156 14.4719 5.64156H13.0775C12.8528 5.64156 12.8067 5.50677 12.9421 5.32887C12.9421 5.32887 12.9421 5.32887 16.0937 2.21272L16.2994 2.12646Z" fill="#ED1C24"/>
<path fill-rule="evenodd" clip-rule="evenodd" d="M11.3656 7.02697C11.4225 7.05393 11.4577 7.1321 11.4577 7.24532V13.7417C11.4577 13.8549 11.4225 13.9223 11.3656 13.9439C11.3115 13.9655 11.2329 13.9439 11.1409 13.8765C11.1409 13.8765 11.1409 13.8765 8.03539 10.7604C7.85669 10.6283 7.85669 10.3587 8.03539 10.1808C8.03539 10.1808 8.03539 10.1808 11.1409 7.11053C11.2329 7.02158 11.3115 7.00002 11.3656 7.02697Z" fill="#ED1C24"/>
<path fill-rule="evenodd" clip-rule="evenodd" d="M15.2825 12.1404C15.2825 12.1404 15.2825 12.1404 17.5758 12.1404C17.8465 12.1404 18.0279 12.3184 18.0279 12.5421C18.0279 12.5421 18.0279 12.5421 18.0279 14.9897C18.0279 15.2566 18.2066 15.4345 18.4313 15.4345H19.647C19.8717 15.4345 19.9611 15.5666 19.7824 15.7014C19.7824 15.7014 19.7824 15.7014 16.7229 18.7717C16.6308 18.8606 16.5198 18.9064 16.4061 18.9064C16.2951 18.9064 16.1814 18.8606 16.092 18.7717C16.092 18.7717 16.092 18.7717 13.0326 15.7014C12.8512 15.5666 12.9405 15.4345 13.1652 15.4345C13.1652 15.4345 13.1652 15.4345 14.4702 15.4345C14.6977 15.4345 14.8764 15.2566 14.8764 14.9897C14.8764 14.9897 14.8764 14.9897 14.8764 12.5421C14.8764 12.3184 15.0578 12.1404 15.2825 12.1404Z" fill="#ED1C24"/>
</svg>
