<svg width="20" height="20" viewBox="0 0 20 20" fill="none" xmlns="http://www.w3.org/2000/svg">
<g clip-path="url(#clip0_251_1808)">
<path fill-rule="evenodd" clip-rule="evenodd" d="M12.9426 7.68252C13.0008 7.74058 13.0469 7.80954 13.0784 7.88548C13.11 7.96141 13.1262 8.04281 13.1262 8.12502C13.1262 8.20723 13.11 8.28863 13.0784 8.36456C13.0469 8.44049 13.0008 8.50946 12.9426 8.56752L9.19256 12.3175C9.1345 12.3757 9.06553 12.4219 8.9896 12.4534C8.91367 12.4849 8.83227 12.5011 8.75006 12.5011C8.66785 12.5011 8.58645 12.4849 8.51051 12.4534C8.43458 12.4219 8.36561 12.3757 8.30756 12.3175L6.43256 10.4425C6.37445 10.3844 6.32835 10.3154 6.2969 10.2395C6.26545 10.1636 6.24927 10.0822 6.24927 10C6.24927 9.91784 6.26545 9.83646 6.2969 9.76054C6.32835 9.68461 6.37445 9.61563 6.43256 9.55752C6.49067 9.49941 6.55965 9.45331 6.63558 9.42186C6.7115 9.39042 6.79288 9.37423 6.87506 9.37423C6.95724 9.37423 7.03861 9.39042 7.11454 9.42186C7.19046 9.45331 7.25945 9.49941 7.31756 9.55752L8.75006 10.9913L12.0576 7.68252C12.1156 7.62431 12.1846 7.57814 12.2605 7.54663C12.3364 7.51512 12.4178 7.4989 12.5001 7.4989C12.5823 7.4989 12.6637 7.51512 12.7396 7.54663C12.8155 7.57814 12.8845 7.62431 12.9426 7.68252Z" fill="#42B029"/>
<path d="M12.8415 3.14146L11.6902 1.96146L12.584 1.08896L13.3615 1.88521L14.474 1.87146C14.9555 1.86577 15.4334 1.95641 15.8794 2.13807C16.3254 2.31974 16.7306 2.58875 17.0711 2.92929C17.4117 3.26983 17.6807 3.67502 17.8624 4.12104C18.044 4.56706 18.1347 5.0449 18.129 5.52646L18.1165 6.63896L18.9115 7.41646C19.2558 7.75293 19.5294 8.15482 19.7162 8.59852C19.903 9.04223 19.9992 9.51879 19.9992 10.0002C19.9992 10.4816 19.903 10.9582 19.7162 11.4019C19.5294 11.8456 19.2558 12.2475 18.9115 12.584L18.1152 13.3615L18.129 14.474C18.1347 14.9555 18.044 15.4334 17.8624 15.8794C17.6807 16.3254 17.4117 16.7306 17.0711 17.0711C16.7306 17.4117 16.3254 17.6807 15.8794 17.8624C15.4334 18.044 14.9555 18.1347 14.474 18.129L13.3615 18.1165L12.584 18.9115C12.2475 19.2558 11.8456 19.5294 11.4019 19.7162C10.9582 19.903 10.4816 19.9992 10.0002 19.9992C9.51879 19.9992 9.04223 19.903 8.59852 19.7162C8.15482 19.5294 7.75293 19.2558 7.41646 18.9115L6.63896 18.1152L5.52646 18.129C5.0449 18.1347 4.56706 18.044 4.12104 17.8624C3.67502 17.6807 3.26983 17.4117 2.92929 17.0711C2.58875 16.7306 2.31974 16.3254 2.13807 15.8794C1.95641 15.4334 1.86577 14.9555 1.87146 14.474L1.88396 13.3615L1.08896 12.584C0.74464 12.2475 0.47104 11.8456 0.284243 11.4019C0.0974465 10.9582 0.0012207 10.4816 0.0012207 10.0002C0.0012207 9.51879 0.0974465 9.04223 0.284243 8.59852C0.47104 8.15482 0.74464 7.75293 1.08896 7.41646L1.88521 6.63896L1.87146 5.52646C1.86577 5.0449 1.95641 4.56706 2.13807 4.12104C2.31974 3.67502 2.58875 3.26983 2.92929 2.92929C3.26983 2.58875 3.67502 2.31974 4.12104 2.13807C4.56706 1.95641 5.0449 1.86577 5.52646 1.87146L6.63896 1.88396L7.41646 1.08896C7.75293 0.74464 8.15482 0.47104 8.59852 0.284243C9.04223 0.0974465 9.51879 0.0012207 10.0002 0.0012207C10.4816 0.0012207 10.9582 0.0974465 11.4019 0.284243C11.8456 0.47104 12.2475 0.74464 12.584 1.08896L11.6902 1.96146C11.4702 1.7362 11.2073 1.5572 10.9171 1.43498C10.6269 1.31277 10.3151 1.24981 10.0002 1.24981C9.68531 1.24981 9.37358 1.31277 9.08335 1.43498C8.79313 1.5572 8.53026 1.7362 8.31021 1.96146L7.16021 3.14146L5.51021 3.12146C5.19544 3.11795 4.88313 3.17737 4.59164 3.29625C4.30015 3.41513 4.03536 3.59106 3.81283 3.81371C3.59029 4.03637 3.41449 4.30125 3.29577 4.5928C3.17704 4.88435 3.11778 5.19669 3.12146 5.51146L3.14146 7.15897L1.96146 8.31021C1.7362 8.53026 1.5572 8.79313 1.43498 9.08335C1.31277 9.37358 1.24981 9.68531 1.24981 10.0002C1.24981 10.3151 1.31277 10.6269 1.43498 10.9171C1.5572 11.2073 1.7362 11.4702 1.96146 11.6902L3.14146 12.8402L3.12146 14.4902C3.11795 14.805 3.17737 15.1173 3.29625 15.4088C3.41513 15.7003 3.59106 15.9651 3.81371 16.1876C4.03637 16.4101 4.30125 16.5859 4.5928 16.7047C4.88435 16.8234 5.19669 16.8826 5.51146 16.879L7.15897 16.859L8.31021 18.039C8.53026 18.2642 8.79313 18.4432 9.08335 18.5654C9.37358 18.6877 9.68531 18.7506 10.0002 18.7506C10.3151 18.7506 10.6269 18.6877 10.9171 18.5654C11.2073 18.4432 11.4702 18.2642 11.6902 18.039L12.8402 16.859L14.4902 16.879C14.805 16.8825 15.1173 16.8231 15.4088 16.7042C15.7003 16.5853 15.9651 16.4094 16.1876 16.1867C16.4101 15.9641 16.5859 15.6992 16.7047 15.4076C16.8234 15.1161 16.8826 14.8037 16.879 14.489L16.859 12.8415L18.039 11.6902C18.2642 11.4702 18.4432 11.2073 18.5654 10.9171C18.6877 10.6269 18.7506 10.3151 18.7506 10.0002C18.7506 9.68531 18.6877 9.37358 18.5654 9.08335C18.4432 8.79313 18.2642 8.53026 18.039 8.31021L16.859 7.16021L16.879 5.51021C16.8825 5.19544 16.8231 4.88313 16.7042 4.59164C16.5853 4.30015 16.4094 4.03536 16.1867 3.81283C15.9641 3.59029 15.6992 3.41449 15.4076 3.29577C15.1161 3.17704 14.8037 3.11778 14.489 3.12146L12.8415 3.14146Z" fill="#42B029"/>
</g>
<defs>
<clipPath id="clip0_251_1808">
<rect width="20" height="20" fill="white"/>
</clipPath>
</defs>
</svg>
