<svg width="24" height="24" viewBox="0 0 24 24" fill="none" xmlns="http://www.w3.org/2000/svg">
<path fill-rule="evenodd" clip-rule="evenodd" d="M17.586 20.5566C17.8677 20.7561 18.2308 20.806 18.5546 20.6835C18.8783 20.5601 19.1163 20.2836 19.1881 19.9485C19.9484 16.3751 21.7929 7.33041 22.485 4.07985C22.5375 3.83486 22.45 3.58024 22.2575 3.41662C22.065 3.253 21.7981 3.20575 21.5601 3.29412C17.8914 4.65209 6.59273 8.89137 1.97459 10.6002C1.68147 10.7087 1.49072 10.9904 1.50035 11.2993C1.51085 11.6091 1.71909 11.8777 2.01921 11.9678C4.09029 12.5873 6.80885 13.4491 6.80885 13.4491C6.80885 13.4491 8.07932 17.2859 8.74168 19.2371C8.82481 19.4821 9.01643 19.6746 9.2693 19.7411C9.52129 19.8067 9.79078 19.7376 9.9789 19.56C11.0429 18.5555 12.6878 17.0024 12.6878 17.0024C12.6878 17.0024 15.8133 19.294 17.586 20.5566ZM7.95245 12.9644L9.42154 17.81L9.74791 14.7415C9.74791 14.7415 15.4239 9.62198 18.6596 6.70392C18.7541 6.61817 18.7672 6.47468 18.6885 6.37405C18.6106 6.27343 18.4671 6.24981 18.3595 6.31805C14.6093 8.71287 7.95245 12.9644 7.95245 12.9644Z" fill="black"/>
</svg>
