<svg width="18" height="21" viewBox="0 0 18 21" fill="none" xmlns="http://www.w3.org/2000/svg">
<path fill-rule="evenodd" clip-rule="evenodd" d="M4.5 3.13266C3.45858 3.25614 2.69469 3.49457 2.06107 3.95492C1.6366 4.26331 1.26331 4.6366 0.954915 5.06107C0 6.3754 0 8.25027 0 12C0 15.7497 0 17.6246 0.954915 18.9389C1.26331 19.3634 1.6366 19.7367 2.06107 20.0451C3.3754 21 5.25027 21 9 21C9.83894 21 10.584 21 11.25 20.9893L11.25 20.9192C11.2499 20.0672 11.2499 19.5482 11.3208 19.1005C11.7105 16.6401 13.6401 14.7105 16.1005 14.3208C16.5482 14.2499 17.0672 14.2499 17.9192 14.25L17.9893 14.25C18 13.5842 18 12.8392 18 12.0005C18 8.25073 18 6.3754 17.0451 5.06107C16.7367 4.6366 16.3634 4.26331 15.9389 3.95492C15.3053 3.49457 14.5414 3.25614 13.5 3.13266V4C13.5 4.82843 12.8284 5.5 12 5.5C11.1716 5.5 10.5 4.82843 10.5 4V3.00281C10.0359 3 9.53719 3 9 3C8.46281 3 7.9641 3 7.5 3.00281V4C7.5 4.82843 6.82843 5.5 6 5.5C5.17157 5.5 4.5 4.82843 4.5 4V3.13266ZM4 9C4.55228 9 5 8.55228 5 8C5 7.44772 4.55228 7 4 7C3.44772 7 3 7.44772 3 8C3 8.55228 3.44772 9 4 9ZM5 12C5 12.5523 4.55228 13 4 13C3.44772 13 3 12.5523 3 12C3 11.4477 3.44772 11 4 11C4.55228 11 5 11.4477 5 12ZM9 9C9.55229 9 10 8.55228 10 8C10 7.44772 9.55229 7 9 7C8.44771 7 8 7.44772 8 8C8 8.55228 8.44771 9 9 9ZM10 12C10 12.5523 9.55229 13 9 13C8.44771 13 8 12.5523 8 12C8 11.4477 8.44771 11 9 11C9.55229 11 10 11.4477 10 12ZM9 17C9.55229 17 10 16.5523 10 16C10 15.4477 9.55229 15 9 15C8.44771 15 8 15.4477 8 16C8 16.5523 8.44771 17 9 17ZM15 8C15 8.55228 14.5523 9 14 9C13.4477 9 13 8.55228 13 8C13 7.44772 13.4477 7 14 7C14.5523 7 15 7.44772 15 8ZM14 13C14.5523 13 15 12.5523 15 12C15 11.4477 14.5523 11 14 11C13.4477 11 13 11.4477 13 12C13 12.5523 13.4477 13 14 13ZM5 16C5 16.5523 4.55228 17 4 17C3.44772 17 3 16.5523 3 16C3 15.4477 3.44772 15 4 15C4.55228 15 5 15.4477 5 16Z" fill="#B2BAC0"/>
<path d="M17.9347 15.75C17.0243 15.7501 16.6435 15.7535 16.3352 15.8023C14.5166 16.0904 13.0904 17.5166 12.8023 19.3352C12.7535 19.6435 12.7501 20.0243 12.75 20.9347C14.1896 20.8403 15.1622 20.6094 15.9389 20.0451C16.3634 19.7367 16.7367 19.3634 17.0451 18.9389C17.6094 18.1622 17.8403 17.1896 17.9347 15.75Z" fill="#B2BAC0"/>
<path d="M6.75 1C6.75 0.585786 6.41421 0.25 6 0.25C5.58579 0.25 5.25 0.585786 5.25 1V4C5.25 4.41421 5.58579 4.75 6 4.75C6.41421 4.75 6.75 4.41421 6.75 4V1Z" fill="#B2BAC0"/>
<path d="M12.75 1C12.75 0.585786 12.4142 0.25 12 0.25C11.5858 0.25 11.25 0.585786 11.25 1V4C11.25 4.41421 11.5858 4.75 12 4.75C12.4142 4.75 12.75 4.41421 12.75 4V1Z" fill="#B2BAC0"/>
</svg>
