<svg width="22" height="24" viewBox="0 0 22 24" fill="none" xmlns="http://www.w3.org/2000/svg">
<path d="M20.2867 8.4533C19.505 7.58997 18.3267 7.0883 16.6934 6.9133V6.02663C16.6934 4.4283 16.0167 2.8883 14.8267 1.81497C13.625 0.718298 12.0617 0.204965 10.44 0.356632C7.6517 0.624965 5.3067 3.31997 5.3067 6.23663V6.9133C3.67336 7.0883 2.49503 7.58997 1.71336 8.4533C0.581696 9.7133 0.616696 11.3933 0.745029 12.56L1.5617 19.0583C1.8067 21.3333 2.72836 23.6666 7.74503 23.6666H14.255C19.2717 23.6666 20.1934 21.3333 20.4384 19.07L21.255 12.5483C21.3834 11.3933 21.4067 9.7133 20.2867 8.4533ZM10.6034 1.9783C11.77 1.8733 12.8784 2.23497 13.7417 3.01663C14.5934 3.78663 15.0717 4.8833 15.0717 6.02663V6.8433H6.92836V6.23663C6.92836 4.15997 8.64336 2.16497 10.6034 1.9783ZM6.82336 13.3416H6.8117C6.17003 13.3416 5.64503 12.8166 5.64503 12.175C5.64503 11.5333 6.17003 11.0083 6.8117 11.0083C7.46503 11.0083 7.99003 11.5333 7.99003 12.175C7.99003 12.8166 7.46503 13.3416 6.82336 13.3416ZM14.99 13.3416H14.9784C14.3367 13.3416 13.8117 12.8166 13.8117 12.175C13.8117 11.5333 14.3367 11.0083 14.9784 11.0083C15.6317 11.0083 16.1567 11.5333 16.1567 12.175C16.1567 12.8166 15.6317 13.3416 14.99 13.3416Z" fill="white"/>
</svg>
