<svg width="44" height="44" viewBox="0 0 44 44" fill="none" xmlns="http://www.w3.org/2000/svg">
<path fill-rule="evenodd" clip-rule="evenodd" d="M14.7778 12C13.7959 12 13 12.9949 13 14.2222V19.7778C13 21.0051 13.7959 22 14.7778 22H19.2222C20.2041 22 21 21.0051 21 19.7778V14.2222C21 12.9949 20.2041 12 19.2222 12H14.7778ZM19.2222 14.2222H14.7778V19.7778H19.2222V14.2222Z" fill="#8C8F9D"/>
<path fill-rule="evenodd" clip-rule="evenodd" d="M23 14.2222C23 12.9949 23.7959 12 24.7778 12H29.2222C30.2041 12 31 12.9949 31 14.2222V19.7778C31 21.0051 30.2041 22 29.2222 22H24.7778C23.7959 22 23 21.0051 23 19.7778V14.2222ZM24.7778 14.2222H29.2222V19.7778H24.7778V14.2222Z" fill="#8C8F9D"/>
<path fill-rule="evenodd" clip-rule="evenodd" d="M14.7778 24C13.7959 24 13 24.7959 13 25.7778V30.2222C13 31.2041 13.7959 32 14.7778 32H19.2222C20.2041 32 21 31.2041 21 30.2222V25.7778C21 24.7959 20.2041 24 19.2222 24H14.7778ZM19.2222 25.7778H14.7778V30.2222H19.2222V25.7778Z" fill="#8C8F9D"/>
<path fill-rule="evenodd" clip-rule="evenodd" d="M23 25.7778C23 24.7959 23.7959 24 24.7778 24H29.2222C30.2041 24 31 24.7959 31 25.7778V30.2222C31 31.2041 30.2041 32 29.2222 32H24.7778C23.7959 32 23 31.2041 23 30.2222V25.7778ZM24.7778 25.7778H29.2222V30.2222H24.7778V25.7778Z" fill="#8C8F9D"/>
<path fill-rule="evenodd" clip-rule="evenodd" d="M14.4706 6C14.9904 6 15.4118 6.42138 15.4118 6.94118V8.82353H17.2941V6.94118C17.2941 6.42138 17.7155 6 18.2353 6C18.7551 6 19.1765 6.42138 19.1765 6.94118V8.82353H21.0588V6.94118C21.0588 6.42138 21.4802 6 22 6C22.5198 6 22.9412 6.42138 22.9412 6.94118V8.82353H24.8235V6.94118C24.8235 6.42138 25.2449 6 25.7647 6C26.2845 6 26.7059 6.42138 26.7059 6.94118V8.82353H28.5882V6.94118C28.5882 6.42138 29.0096 6 29.5294 6C30.0492 6 30.4706 6.42138 30.4706 6.94118V8.82353H33.2941C34.3337 8.82353 35.1765 9.66629 35.1765 10.7059V13.5294H37.0588C37.5786 13.5294 38 13.9508 38 14.4706C38 14.9904 37.5786 15.4118 37.0588 15.4118H35.1765V17.2941H37.0588C37.5786 17.2941 38 17.7155 38 18.2353C38 18.7551 37.5786 19.1765 37.0588 19.1765H35.1765V21.0588H37.0588C37.5786 21.0588 38 21.4802 38 22C38 22.5198 37.5786 22.9412 37.0588 22.9412H35.1765V24.8235H37.0588C37.5786 24.8235 38 25.2449 38 25.7647C38 26.2845 37.5786 26.7059 37.0588 26.7059H35.1765V28.5882H37.0588C37.5786 28.5882 38 29.0096 38 29.5294C38 30.0492 37.5786 30.4706 37.0588 30.4706H35.1765V33.2941C35.1765 34.3337 34.3337 35.1765 33.2941 35.1765H30.4706V37.0588C30.4706 37.5786 30.0492 38 29.5294 38C29.0096 38 28.5882 37.5786 28.5882 37.0588V35.1765H26.7059V37.0588C26.7059 37.5786 26.2845 38 25.7647 38C25.2449 38 24.8235 37.5786 24.8235 37.0588V35.1765H22.9412V37.0588C22.9412 37.5786 22.5198 38 22 38C21.4802 38 21.0588 37.5786 21.0588 37.0588V35.1765H19.1765V37.0588C19.1765 37.5786 18.7551 38 18.2353 38C17.7155 38 17.2941 37.5786 17.2941 37.0588V35.1765H15.4118V37.0588C15.4118 37.5786 14.9904 38 14.4706 38C13.9508 38 13.5294 37.5786 13.5294 37.0588V35.1765H10.7059C9.66629 35.1765 8.82353 34.3337 8.82353 33.2941V30.4706H6.94118C6.42138 30.4706 6 30.0492 6 29.5294C6 29.0096 6.42138 28.5882 6.94118 28.5882H8.82353V26.7059H6.94118C6.42138 26.7059 6 26.2845 6 25.7647C6 25.2449 6.42138 24.8235 6.94118 24.8235H8.82353V22.9412H6.94118C6.42138 22.9412 6 22.5198 6 22C6 21.4802 6.42138 21.0588 6.94118 21.0588H8.82353V19.1765H6.94118C6.42138 19.1765 6 18.7551 6 18.2353C6 17.7155 6.42138 17.2941 6.94118 17.2941H8.82353V15.4118H6.94118C6.42138 15.4118 6 14.9904 6 14.4706C6 13.9508 6.42138 13.5294 6.94118 13.5294H8.82353V10.7059C8.82353 9.66629 9.66629 8.82353 10.7059 8.82353H13.5294V6.94118C13.5294 6.42138 13.9508 6 14.4706 6ZM10.7059 10.7059V33.2941H33.2941V10.7059H10.7059Z" fill="#8C8F9D"/>
</svg>
