<svg width="52" height="52" viewBox="0 0 52 52" fill="none" xmlns="http://www.w3.org/2000/svg">
<rect width="52" height="52" rx="12" fill="#F5F6F8"/>
<path d="M31.18 15.6167C29.0683 15.6167 27.1783 16.6434 26 18.2184C24.8216 16.6434 22.9316 15.6167 20.82 15.6167C17.2383 15.6167 14.3333 18.5334 14.3333 22.1384C14.3333 23.5267 14.555 24.81 14.94 26C16.7833 31.8334 22.465 35.3217 25.2766 36.2784C25.6733 36.4184 26.3266 36.4184 26.7233 36.2784C29.535 35.3217 35.2166 31.8334 37.06 26C37.445 24.81 37.6666 23.5267 37.6666 22.1384C37.6666 18.5334 34.7616 15.6167 31.18 15.6167Z" fill="#001E34"/>
</svg>
