<svg width="44" height="44" viewBox="0 0 44 44" fill="none" xmlns="http://www.w3.org/2000/svg">
<path d="M22.3739 8.08251C22.134 7.98635 21.8662 7.98635 21.6263 8.08251L9.63267 12.8796L14.4639 14.8108L26.8313 9.86507L22.3739 8.08251ZM29.5363 10.9483L17.1689 15.894L22.0001 17.8253L34.3675 12.8796L29.5363 10.9483ZM36.0677 14.3647L23.0049 19.5898V35.5103L36.0677 30.2852V14.3647ZM20.9953 35.5123V19.5878L7.93251 14.3647V30.2872L20.9953 35.5123ZM20.8807 6.21554C21.5993 5.92815 22.4009 5.92815 23.1195 6.21554L37.4463 11.9471C37.6326 12.0217 37.7922 12.1504 37.9047 12.3166C38.0171 12.4828 38.0773 12.6789 38.0773 12.8796V30.2872C38.0771 30.6888 37.9565 31.081 37.7312 31.4135C37.5059 31.7459 37.1862 32.0032 36.8133 32.1521L22.3739 37.9279C22.134 38.024 21.8662 38.024 21.6263 37.9279L7.18893 32.1521C6.81564 32.0035 6.49549 31.7463 6.2698 31.4139C6.04412 31.0814 5.92327 30.689 5.92285 30.2872V12.8796C5.9229 12.6789 5.98303 12.4828 6.09549 12.3166C6.20796 12.1504 6.36761 12.0217 6.55388 11.9471L20.8807 6.21554Z" fill="#8C8F9D"/>
</svg>
