<svg width="52" height="52" viewBox="0 0 52 52" fill="none" xmlns="http://www.w3.org/2000/svg">
<rect width="52" height="52" rx="12" fill="#F5F6F8"/>
<path d="M26 14.3333C22.9433 14.3333 20.4583 16.8183 20.4583 19.8749C20.4583 22.8733 22.8033 25.2999 25.86 25.4049C25.9533 25.3933 26.0467 25.3933 26.1167 25.4049C26.14 25.4049 26.1517 25.4049 26.175 25.4049C26.1867 25.4049 26.1867 25.4049 26.1983 25.4049C29.185 25.2999 31.53 22.8733 31.5417 19.8749C31.5417 16.8183 29.0567 14.3333 26 14.3333Z" fill="#001E34"/>
<path d="M31.9267 28.5083C28.6717 26.3383 23.3633 26.3383 20.085 28.5083C18.6033 29.4999 17.7867 30.8416 17.7867 32.2766C17.7867 33.7116 18.6033 35.0416 20.0733 36.0216C21.7067 37.1182 23.8533 37.6666 26 37.6666C28.1467 37.6666 30.2934 37.1182 31.9267 36.0216C33.3967 35.0299 34.2134 33.6999 34.2134 32.2533C34.2017 30.8183 33.3967 29.4883 31.9267 28.5083Z" fill="#001E34"/>
</svg>
