<svg width="44" height="44" viewBox="0 0 44 44" fill="none" xmlns="http://www.w3.org/2000/svg">
<path d="M28.5024 6.13688C28.6981 6.25036 28.8496 6.42686 28.9321 6.63756C29.0145 6.84825 29.0231 7.08069 28.9564 7.29688L25.3544 19.0009H32.0004C32.1957 19.0008 32.3868 19.0579 32.55 19.1652C32.7132 19.2724 32.8414 19.4252 32.9189 19.6045C32.9963 19.7838 33.0195 19.9818 32.9857 20.1742C32.9518 20.3665 32.8624 20.5448 32.7284 20.6869L16.7284 37.6869C16.5736 37.8515 16.3676 37.9588 16.1439 37.9914C15.9203 38.0239 15.6923 37.9798 15.4969 37.8661C15.3016 37.7525 15.1506 37.576 15.0684 37.3655C14.9862 37.155 14.9777 36.9228 15.0444 36.7069L18.6464 25.0009H12.0004C11.8051 25.001 11.614 24.9438 11.4508 24.8366C11.2876 24.7293 11.1594 24.5766 11.0819 24.3973C11.0045 24.218 10.9813 24.0199 11.0151 23.8276C11.049 23.6352 11.1384 23.457 11.2724 23.3149L27.2724 6.31488C27.427 6.15048 27.6327 6.04322 27.856 6.01054C28.0793 5.97786 28.3071 6.02168 28.5024 6.13488V6.13688ZM14.3144 23.0009H20.0004C20.1569 23.0009 20.3112 23.0376 20.4509 23.108C20.5907 23.1785 20.7119 23.2808 20.8049 23.4067C20.8979 23.5325 20.96 23.6785 20.9864 23.8327C21.0127 23.987 21.0024 24.1453 20.9564 24.2949L18.2204 33.1809L29.6844 21.0009H24.0004C23.8439 21.0009 23.6896 20.9642 23.5499 20.8937C23.4101 20.8233 23.2889 20.721 23.1959 20.5951C23.1029 20.4692 23.0408 20.3233 23.0144 20.169C22.9881 20.0148 22.9984 19.8565 23.0444 19.7069L25.7804 10.8209L14.3144 23.0009Z" fill="#8C8F9D"/>
</svg>
