<svg width="20" height="20" viewBox="0 0 20 20" fill="none" xmlns="http://www.w3.org/2000/svg">
<path d="M12.1855 15.5481L6.80689 12.6146C6.2906 13.1271 5.63414 13.4752 4.92026 13.6152C4.20639 13.7551 3.46706 13.6806 2.79548 13.4009C2.12391 13.1213 1.55016 12.6491 1.14656 12.0439C0.742963 11.4386 0.527588 10.7275 0.527588 10C0.527588 9.27254 0.742963 8.56136 1.14656 7.95612C1.55016 7.35089 2.12391 6.87869 2.79548 6.59906C3.46706 6.31943 4.20639 6.24489 4.92026 6.38483C5.63414 6.52477 6.2906 6.87294 6.80689 7.38543L12.1855 4.45193C12.001 3.58644 12.1343 2.68347 12.5608 1.90815C12.9874 1.13282 13.6788 0.536945 14.5086 0.229493C15.3384 -0.0779591 16.2512 -0.0764448 17.0799 0.233759C17.9087 0.543963 18.5981 1.14213 19.0221 1.91886C19.4461 2.6956 19.5764 3.59901 19.389 4.46388C19.2017 5.32875 18.7093 6.09729 18.0019 6.62895C17.2945 7.16061 16.4193 7.41987 15.5365 7.35932C14.6536 7.29877 13.8221 6.92245 13.1939 6.29918L7.81525 9.23268C7.92254 9.7386 7.92254 10.2614 7.81525 10.7673L13.1939 13.7008C13.8221 13.0776 14.6536 12.7012 15.5365 12.6407C16.4193 12.5801 17.2945 12.8394 18.0019 13.3711C18.7093 13.9027 19.2017 14.6713 19.389 15.5361C19.5764 16.401 19.4461 17.3044 19.0221 18.0811C18.5981 18.8579 17.9087 19.456 17.0799 19.7662C16.2512 20.0764 15.3384 20.078 14.5086 19.7705C13.6788 19.4631 12.9874 18.8672 12.5608 18.0919C12.1343 17.3165 12.001 16.4136 12.1855 15.5481Z" fill="black"/>
</svg>
