<svg width="97" height="52" viewBox="0 0 97 52" fill="none" xmlns="http://www.w3.org/2000/svg">
<rect x="0.5" y="0.5" width="95.3114" height="51" rx="11.5" fill="#F8F9FA"/>
<rect x="0.5" y="0.5" width="95.3114" height="51" rx="11.5" stroke="#E8E8E8"/>
<path d="M45.3114 26.3568C45.3127 25.2667 45.2208 24.1783 45.0364 23.1038H29.9719V29.2653H38.6C38.4235 30.2495 38.0498 31.1877 37.5015 32.0233C36.9533 32.8589 36.2417 33.5744 35.4098 34.1273V38.1269H40.5591C43.5743 35.3427 45.3114 31.2253 45.3114 26.3568Z" fill="#4285F4"/>
<path d="M29.9725 41.9999C34.2833 41.9999 37.9129 40.5823 40.5597 38.138L35.4104 34.1384C33.9771 35.1116 32.1312 35.6671 29.9725 35.6671C25.806 35.6671 22.2695 32.854 21.0049 29.0632H15.7002V33.1852C17.0297 35.8348 19.0684 38.0624 21.5887 39.619C24.109 41.1754 27.0116 41.9997 29.9725 41.9999Z" fill="#34A853"/>
<path d="M21.0056 29.0561C20.3371 27.0697 20.3371 24.9185 21.0056 22.9321V18.8103H15.7009C14.5825 21.0394 14 23.4995 14 25.9941C14 28.4887 14.5825 30.9488 15.7009 33.1779L21.0056 29.0561Z" fill="#FBBC04"/>
<path d="M29.9725 16.3338C32.2506 16.2966 34.4517 17.1585 36.1002 18.7336L40.6595 14.1674C37.7685 11.4478 33.9386 9.95464 29.9725 10.0011C27.0116 10.0012 24.109 10.8255 21.5887 12.3821C19.0684 13.9386 17.0297 16.1661 15.7002 18.8158L21.0049 22.9378C22.2695 19.1469 25.806 16.3338 29.9725 16.3338Z" fill="#EA4335"/>
<path d="M54.7674 30.5V19.3H58.3034C60.6554 19.3 62.2234 20.628 62.2234 22.788V23.028C62.2234 25.22 60.6874 26.564 58.3354 26.564H56.4634V30.5H54.7674ZM56.4314 25.108H58.2074C59.6474 25.108 60.5114 24.356 60.5114 23.06V22.82C60.5114 21.54 59.6474 20.82 58.2234 20.82H56.4314V25.108ZM65.9854 30.644C64.3694 30.644 63.2494 29.668 63.2494 28.18V28.052C63.2494 26.26 64.7854 25.364 67.9694 25.364H68.6894V24.9C68.6894 24.004 68.0814 23.444 66.9774 23.444H66.8814C66.0494 23.444 65.1054 23.748 64.3534 24.308L63.6494 23.108C64.6574 22.436 65.7934 22.02 66.9934 22.02H67.1054C69.0574 22.02 70.2254 23.108 70.2254 24.868V28.964C70.2254 29.476 70.3694 30.052 70.5134 30.5H68.9614C68.8654 30.26 68.7854 29.86 68.7374 29.508C67.9694 30.244 67.0094 30.644 65.9854 30.644ZM66.2414 29.252C67.2174 29.252 68.0974 28.804 68.6894 28.1V26.564H68.1774C65.8094 26.564 64.8014 26.996 64.8014 27.988V28.068C64.8014 28.788 65.3774 29.252 66.2414 29.252ZM73.3323 33.684C72.9483 33.684 72.3883 33.62 71.9723 33.38V31.988C72.3403 32.164 72.7083 32.26 73.0603 32.26C73.7963 32.26 74.4363 31.748 74.8203 30.852L71.2363 22.18H72.9643L75.5883 28.852H75.7003L77.7643 22.18H79.3963L76.5003 30.9C75.9563 32.548 74.9643 33.684 73.3323 33.684Z" fill="black"/>
</svg>
