<svg width="54" height="52" viewBox="0 0 54 52" fill="none" xmlns="http://www.w3.org/2000/svg">
<rect x="0.69043" y="0.5" width="52.559" height="51" rx="11.5" fill="#F8F9FA"/>
<rect x="0.69043" y="0.5" width="52.559" height="51" rx="11.5" stroke="#E8E8E8"/>
<path d="M17.5385 10C26.4225 10.2103 26.2219 16.6281 25.8209 18.4219C16.9378 18.2094 17.1406 11.7945 17.5385 10ZM33.8599 20.988C30.7741 19.2892 28.2346 20.5146 25.9301 20.5145C23.6224 20.5141 21.1672 19.2883 18.0797 20.988C15.7037 22.2962 13.7953 25.381 14.2608 30.2014C14.7763 35.5406 18.0091 40.9107 20.8959 41.8532C22.3639 42.3323 23.9375 41.4851 25.9304 41.4851C27.9232 41.4851 29.576 42.3323 31.0441 41.8532C33.9309 40.911 37.1636 35.5406 37.6791 30.2014C38.1443 25.381 36.2361 22.2962 33.8599 20.988Z" fill="#00D352"/>
</svg>
