<svg width="63" height="52" viewBox="0 0 63 52" fill="none" xmlns="http://www.w3.org/2000/svg">
<rect x="0.811401" y="0.5" width="61" height="51" rx="11.5" fill="#F8F9FA"/>
<rect x="0.811401" y="0.5" width="61" height="51" rx="11.5" stroke="#E8E8E8"/>
<path d="M23.0209 21.1275L20.4471 27.8047L20.1959 26.4211C19.5681 24.7367 18.187 22.9923 16.5548 22.3305L18.9404 30.9327H21.7025L25.8459 21.1275H23.0209ZM25.2181 30.9327L26.8504 21.1275H29.487L27.8548 30.9327H25.2181ZM40.9126 27.4437C41.1009 26.9024 41.9798 24.6766 41.9798 24.6766C41.9798 24.6766 42.1681 24.1352 42.3565 23.7141L42.5447 24.5563L43.1726 27.3836H40.9126V27.4437ZM44.1142 21.1275H42.1054C41.4775 21.1275 40.9753 21.3079 40.7242 21.9696L36.832 30.9327H39.5942C39.5942 30.9327 40.0337 29.7296 40.1592 29.4288C40.4731 29.4288 43.1726 29.4288 43.5492 29.4288C43.612 29.7897 43.8631 30.8726 43.8631 30.8726H46.3114C46.2487 30.9327 44.1142 21.1275 44.1142 21.1275ZM37.397 21.3681C36.8948 21.1876 36.0787 20.947 35.0115 20.947C32.4376 20.947 30.5542 22.2704 30.5542 24.1953C30.5542 25.5789 31.8725 26.4211 32.877 26.8422C33.8814 27.3234 34.2581 27.6242 34.2581 28.0453C34.2581 28.707 33.442 29.0078 32.6887 29.0078C31.6214 29.0078 31.0564 28.8874 30.2403 28.4664L29.8637 28.346L29.487 30.5116C30.1148 30.8124 31.2448 30.9929 32.4376 31.053C35.1998 31.053 37.0204 29.7296 37.0204 27.6843C37.0204 26.5414 36.3298 25.6992 34.8231 25.0376C33.8814 24.5563 33.3164 24.2555 33.3792 23.8344C33.3792 23.4134 33.8814 22.9923 34.8859 22.9923C35.5765 22.9923 36.267 23.1126 36.832 23.3532L37.0831 23.4735C37.0204 23.4735 37.397 21.3681 37.397 21.3681Z" fill="#1B548E"/>
<path d="M18.4287 20.947H14.3114V21.1363C17.5205 22.0194 19.5791 24.1012 20.4873 26.5615L19.5791 21.8302C19.3974 21.1363 18.9736 20.947 18.4287 20.947Z" fill="#E89F3E"/>
</svg>
