<svg width="63" height="52" viewBox="0 0 63 52" fill="none" xmlns="http://www.w3.org/2000/svg">
<rect x="1.24951" y="0.5" width="61" height="51" rx="11.5" fill="#F8F9FA"/>
<rect x="1.24951" y="0.5" width="61" height="51" rx="11.5" stroke="#E8E8E8"/>
<mask id="mask0_69_4223" style="mask-type:luminance" maskUnits="userSpaceOnUse" x="14" y="10" width="33" height="32">
<path d="M46.7495 10H14.7495V42H46.7495V10Z" fill="white"/>
</mask>
<g mask="url(#mask0_69_4223)">
<path fill-rule="evenodd" clip-rule="evenodd" d="M44.8376 16.2712C41.772 12.4583 36.9477 10 31.5213 10C22.2586 10 14.7495 17.1634 14.7495 26C14.7495 34.8366 22.2586 42 31.5213 42C37.0274 42 41.9138 39.4688 44.9718 35.5596L32.1697 25.9184L44.8376 16.2712Z" fill="#FEB803"/>
<path d="M46.7488 22.2119H39.0868V29.6652H46.7488V22.2119Z" fill="white"/>
<path d="M46.5965 25.0705C46.4949 24.9717 46.3715 24.9222 46.2264 24.9222H43.9626V22.7201C43.9626 22.5789 43.9118 22.4589 43.8102 22.3601C43.7087 22.2614 43.5854 22.2119 43.4401 22.2119H42.3953C42.2502 22.2119 42.1269 22.2613 42.0254 22.3601C41.9237 22.4589 41.873 22.5789 41.873 22.7201V24.9223H39.6091C39.4641 24.9223 39.3407 24.9717 39.2392 25.0705C39.1375 25.1693 39.0868 25.2892 39.0868 25.4304V26.4467C39.0868 26.588 39.1375 26.7079 39.2392 26.8067C39.3407 26.9056 39.464 26.9549 39.6091 26.9549H41.8729V29.1571C41.8729 29.2982 41.9237 29.4183 42.0254 29.5171C42.1269 29.6159 42.2502 29.6652 42.3953 29.6652H43.4401C43.5854 29.6652 43.7086 29.6159 43.8102 29.5171C43.9119 29.4183 43.9626 29.2982 43.9626 29.1571V26.9549H46.2264C46.3716 26.9549 46.4949 26.9056 46.5965 26.8067C46.698 26.7079 46.7488 26.588 46.7488 26.4467V25.4304C46.7488 25.2892 46.6981 25.1692 46.5965 25.0705Z" fill="#232323"/>
</g>
</svg>
